<svg width="24" height="24" viewBox="0 0 24 24" fill="none" xmlns="http://www.w3.org/2000/svg">
<path d="M12 22.3931C17.74 22.3931 22.3931 17.7399 22.3931 12C22.3931 6.26002 17.74 1.60687 12 1.60687C6.26008 1.60687 1.60693 6.26002 1.60693 12C1.60693 17.7399 6.26008 22.3931 12 22.3931Z" stroke="white" stroke-miterlimit="10" stroke-linecap="round" stroke-linejoin="round"/>
<path d="M21.7678 9.73227C19.9333 10.7495 17.2571 11.5661 15.2309 11.9334C15.2309 9.73227 13.5333 8.6698 11.9726 8.6698C10.4119 8.6698 8.65948 9.73227 8.65948 11.7949C6.66066 11.4276 4.08774 10.7495 2.25321 9.73227C2.03416 10.3821 1.92464 10.234 1.86987 10.9404C3.84131 12.0424 6.57852 12.777 8.769 13.1443C9.23448 14.5288 10.4666 15.3367 11.9726 15.3367C13.4785 15.3367 14.7928 14.5288 15.2309 13.1443C17.394 12.777 20.2344 12.0424 22.2333 10.9404C22.1511 10.234 21.9868 10.3821 21.7678 9.73227ZM11.9726 13.4269C11.2059 13.4269 10.6035 12.8053 10.6035 12.0141C10.6035 11.223 11.2059 10.6013 11.9726 10.6013C12.7393 10.6013 13.3416 11.223 13.3416 12.0141C13.3416 12.777 12.7393 13.4269 11.9726 13.4269Z" fill="white"/>
</svg>
